<svg xmlns="http://www.w3.org/2000/svg" viewBox="0 0 120 120" role="img" aria-labelledby="title desc">
  <title id="title">Z-Wave Companion maskot</title>
  <desc id="desc">Illustration af en venlig skade, der repræsenterer Z-Wave Compatibility Hub fællesskabet</desc>
  <defs>
    <linearGradient id="wing" x1="0%" y1="0%" x2="100%" y2="100%">
      <stop offset="0%" stop-color="#2c5530" />
      <stop offset="100%" stop-color="#8fb996" />
    </linearGradient>
  </defs>
  <circle cx="60" cy="60" r="58" fill="#f8f9fa" stroke="#2d3047" stroke-width="2" />
  <path d="M32 66c10 2 24 4 34-2 12-7 20-23 16-34-5-13-22-17-33-9-6 4-10 11-11 17" fill="#2d3047" />
  <path d="M42 70c12 10 33 18 46 6 6-5 9-15 6-22-3-7-11-9-19-6" fill="url(#wing)" />
  <circle cx="66" cy="36" r="6" fill="#ffffff" />
  <circle cx="64" cy="35" r="3" fill="#2d3047" />
  <path d="M45 80c8 6 20 12 32 10" stroke="#2d3047" stroke-width="4" stroke-linecap="round" fill="none" />
  <path d="M26 88c12 6 44 18 66 4" stroke="#4a7c59" stroke-width="3" stroke-linecap="round" fill="none" />
</svg>
