<svg xmlns="http://www.w3.org/2000/svg" width="160" height="140" viewBox="0 0 160 140" role="img" aria-labelledby="title desc">
  <title id="title">Selekti magpie mascot</title>
  <desc id="desc">A friendly magpie illustration representing Selekti.</desc>
  <defs>
    <linearGradient id="wing" x1="0" y1="0" x2="1" y2="1">
      <stop offset="0%" stop-color="#0ea5e9" />
      <stop offset="100%" stop-color="#10b981" />
    </linearGradient>
  </defs>
  <g fill="none" fill-rule="evenodd">
    <path d="M52 92c-10-4-18-15-18-28 0-18 14-32 32-32 15 0 28 9 32 22 3-1 7-1 10-1 20 0 36 14 36 31 0 18-14 30-34 30H70c-8 0-16-3-18-8z" fill="#fff" stroke="#0f172a" stroke-width="4" stroke-linecap="round" stroke-linejoin="round" />
    <path d="M82 54c6 12 8 23 6 32-3 12-13 18-30 18" stroke="#0f172a" stroke-width="4" stroke-linecap="round" />
    <path d="M54 38c-4-6-5-12-1-16 4-4 11-3 16 2 4 4 7 10 7 16" stroke="#0f172a" stroke-width="4" stroke-linecap="round" />
    <circle cx="60" cy="32" r="6" fill="#0f172a" />
    <path d="M44 60c-14 0-24-10-24-22 0-9 6-16 15-16 8 0 14 4 20 14" stroke="#0f172a" stroke-width="4" stroke-linecap="round" />
    <path d="M100 92c12-14 18-24 18-30 0-7-5-12-12-12-8 0-16 6-22 16" fill="url(#wing)" stroke="#0f172a" stroke-width="4" stroke-linecap="round" />
    <path d="M26 102c-6 6-12 16-12 20 0 4 4 6 10 6h28" stroke="#0f172a" stroke-width="4" stroke-linecap="round" />
    <path d="M108 118c6 12 20 20 36 20" stroke="#0f172a" stroke-width="4" stroke-linecap="round" />
  </g>
</svg>
