<svg xmlns="http://www.w3.org/2000/svg" viewBox="0 0 160 160" role="img" aria-hidden="true">
  <defs>
    <linearGradient id="mask" x1="0%" y1="0%" x2="100%" y2="100%">
      <stop offset="0%" stop-color="#0ea5e9"/>
      <stop offset="100%" stop-color="#10b981"/>
    </linearGradient>
  </defs>
  <circle cx="80" cy="80" r="76" fill="url(#mask)" opacity="0.15"/>
  <path fill="#0ea5e9" d="M50 108c15 8 27 10 36 6 9-3 15-11 17-24-7 5-15 7-23 7s-14-2-20-6l-10 17Z" opacity="0.3"/>
  <path fill="#0f172a" d="M112 76c0 18-13 32-32 32s-32-14-32-32 13-32 32-32 32 14 32 32Z"/>
  <path fill="#fff" d="M97 68c0 6-5 11-11 11s-11-5-11-11 5-11 11-11 11 5 11 11Z"/>
  <circle cx="86" cy="68" r="4" fill="#0f172a"/>
  <path fill="#10b981" d="M58 116c7 6 15 9 24 9 9 0 17-3 24-9l-6-11c-5 4-12 6-18 6s-13-2-18-6l-6 11Z"/>
</svg>
