<svg xmlns="http://www.w3.org/2000/svg" viewBox="0 0 120 120" role="img" aria-hidden="true">
  <defs>
    <linearGradient id="g" x1="0%" y1="0%" x2="100%" y2="100%">
      <stop offset="0%" stop-color="#0ea5e9"/>
      <stop offset="100%" stop-color="#10b981"/>
    </linearGradient>
  </defs>
  <rect width="120" height="120" rx="28" fill="url(#g)"/>
  <path fill="#fff" d="M84.4 35.2c-5.7-5.6-13.7-8.7-23.8-8.7H33.5a4.5 4.5 0 0 0-4.5 4.4v57.8a4.5 4.5 0 0 0 4.5 4.4h6.7a4.5 4.5 0 0 0 4.5-4.4V65.7h14.9c10.1 0 18.1-3 23.8-8.7 5.6-5.8 8.5-12.6 8.5-20.1 0-7.4-2.9-14.3-8.5-20.1Zm-18.2 25.2c-3.1 2.8-7.6 4.2-13.4 4.2H44.7V38.2h8.1c5.8 0 10.3 1.4 13.4 4.2 3.1 2.8 4.7 6 4.7 9.6 0 3.6-1.6 6.8-4.7 9.6Z"/>
</svg>
